<svg id="VARG" xmlns:rdf="http://www.w3.org/1999/02/22-rdf-syntax-ns#" xmlns="http://www.w3.org/2000/svg" enable-background="new 0 0 306 44" xml:space="preserve" height="44" viewBox="0 0 62 44" width="62" version="1.1" y="0px" x="0px" xmlns:cc="http://creativecommons.org/ns#" xmlns:dc="http://purl.org/dc/elements/1.1/">
<g id="g3412" transform="matrix(1.1353 0 0 1.1353 -2.6379 -2.9065)">
<g id="g3414">
<path id="path3416" d="m2.469 17.081s0.395-14.323 16.764-14.521h12.276l-2.751 12.133-10.127 0.036c-3.375 0.025-4.019 2.798-4.019 2.798s-0.197 2.92 3.036 3.252l9.729 0.004-2.797 12.336-5.677 0.017c-16.962-0.347-16.434-16.055-16.434-16.055zm54.32 0s-0.726-14.323-17.095-14.521h-5.214l-2.727 12.133 8.544 0.036c3.374 0.025 4.018 2.798 4.018 2.798s0.197 2.92-3.037 3.252l-10.917 0.004-4.726 20.521 11.551 0.011 1.913-8.182 0.924 0.002c16.964-0.346 16.766-16.054 16.766-16.054z" fill="#007ac2"/>
</g>
</g>
</svg>
